<?xml version="1.0" encoding="iso-8859-1"?>
<!-- Generator: Adobe Illustrator 18.0.0, SVG Export Plug-In . SVG Version: 6.00 Build 0)  -->
<!DOCTYPE svg PUBLIC "-//W3C//DTD SVG 1.1//EN" "http://www.w3.org/Graphics/SVG/1.1/DTD/svg11.dtd">
<svg version="1.1" id="Capa_1" xmlns="http://www.w3.org/2000/svg" xmlns:xlink="http://www.w3.org/1999/xlink" x="0px" y="0px"
	 viewBox="0 0 427.969 427.969" style="enable-background:new 0 0 427.969 427.969;" xml:space="preserve">
<path d="M316.129,42.496C289.151,15.347,253.223,0.255,214.966,0c0,0-2.213,0.012-2.224,0.013
	c-37.769,0.327-73.376,15.314-100.385,42.305c-27.324,27.305-42.372,63.416-42.372,101.681c0,41.515,17.931,81.021,49.194,108.387
	c27.065,23.691,47.802,54.899,59.969,90.251l1.26,3.662c0.538,1.564,1.983,2.621,3.625,2.686l9.742,39.182h-6.493
	c-2.209,0-4,1.791-4,4v31.803c0,2.209,1.791,4,4,4h53.407c2.209,0,4-1.791,4-4v-31.803c0-2.209-1.791-4-4-4h-6.493l9.742-39.182
	c1.642-0.065,3.087-1.121,3.625-2.685l1.26-3.66c11.865-34.474,33.066-66.094,61.31-91.442
	c30.411-27.293,47.853-66.366,47.853-107.201C357.985,105.704,343.12,69.656,316.129,42.496z M227.283,313.581
	c2.687-24.074,6.326-45.73,10.83-64.423c6.471-26.835,10.182-65.164,10.182-105.158c0-37.506-3.161-72.853-8.899-99.529
	c-3.394-15.778-7.42-27.39-12.038-34.788c40.529,10.32,71.678,66.772,71.678,134.317c0,38.884-10.517,76.028-28.854,101.908
	c-13.89,19.601-25.019,42.361-33.12,67.673H227.283z M190.974,313.581c-8.084-25.703-18.965-48.089-32.383-66.552
	c-18.847-25.941-29.656-63.493-29.656-103.029c0-36.14,8.954-70.278,25.211-96.125c12.902-20.512,29.091-33.702,46.525-38.176
	c-4.584,7.374-8.593,18.932-11.99,34.618c-5.807,26.813-9.005,62.215-9.005,99.684c0,40.649,3.815,79.408,10.467,106.341
	c4.339,17.532,7.888,38.791,10.563,63.24H190.974z M208.75,313.581c-2.724-25.166-6.367-47.079-10.842-65.16
	C191.405,222.09,187.675,184.03,187.675,144c0-36.917,3.134-71.717,8.824-97.991C202.995,16.014,210.55,8.004,213.985,8h0.133
	c1.164,0.059,4.204,1.091,8.23,9.064c3.383,6.7,6.574,16.759,9.227,29.09c5.624,26.14,8.721,60.889,8.721,97.846
	c0,39.39-3.63,77.035-9.959,103.283c-4.638,19.246-8.367,41.538-11.1,66.298H208.75z M124.448,246.366
	c-29.528-25.848-46.463-63.159-46.463-102.368c0-36.127,14.215-70.228,40.026-96.022c16.021-16.009,35.24-27.548,56.151-33.998
	C142.76,37.223,120.934,86.956,120.934,144c0,41.188,11.366,80.454,31.185,107.732c12.492,17.191,22.728,37.979,30.465,61.85h-6.881
	C162.998,287.77,145.585,264.868,124.448,246.366z M192.279,348.997h17.706v39.17h-7.967L192.279,348.997z M236.688,419.969h-45.407
	v-23.803h45.407V419.969z M217.985,388.167v-39.17h17.705l-9.739,39.17H217.985z M241.257,340.035l-0.331,0.961h-53.883
	l-0.332-0.964c-2.163-6.286-4.608-12.435-7.283-18.452h69.173C245.873,327.631,243.409,333.784,241.257,340.035z M304.788,245.243
	c-21.869,19.627-39.663,42.901-52.396,68.338h-6.927c7.778-23.554,18.273-44.744,31.244-63.048
	c19.273-27.201,30.326-66.03,30.326-106.533c0-37.98-9.412-73.787-26.501-100.824c-7.7-12.182-16.566-21.971-26.228-29.131
	c21,6.488,40.225,18.065,56.149,34.09c25.491,25.652,39.53,59.696,39.53,95.862C349.985,182.563,333.511,219.466,304.788,245.243z"
	/>
<g>
</g>
<g>
</g>
<g>
</g>
<g>
</g>
<g>
</g>
<g>
</g>
<g>
</g>
<g>
</g>
<g>
</g>
<g>
</g>
<g>
</g>
<g>
</g>
<g>
</g>
<g>
</g>
<g>
</g>
</svg>
